<?xml version="1.0" encoding="UTF-8" standalone="no"?>
<!-- Created with Inkscape (http://www.inkscape.org/) -->

<svg
   xmlns:dc="http://purl.org/dc/elements/1.1/"
   xmlns:cc="http://creativecommons.org/ns#"
   xmlns:rdf="http://www.w3.org/1999/02/22-rdf-syntax-ns#"
   xmlns:svg="http://www.w3.org/2000/svg"
   xmlns="http://www.w3.org/2000/svg"
   xmlns:sodipodi="http://sodipodi.sourceforge.net/DTD/sodipodi-0.dtd"
   xmlns:inkscape="http://www.inkscape.org/namespaces/inkscape"
   width="210mm"
   height="297mm"
   viewBox="0 0 210 297"
   version="1.1"
   id="svg8"
   inkscape:version="0.92.5 (2060ec1f9f, 2020-04-08)"
   sodipodi:docname="Logo.svg">
  <defs
     id="defs2">
    <inkscape:path-effect
       effect="bend_path"
       id="path-effect3806"
       is_visible="true"
       bendpath="m -1712.9883,1438.1445 c 690.1908,-96.487 654.1098,105.4083 1675.976582,-25"
       prop_scale="1"
       scale_y_rel="false"
       vertical="false"
       bendpath-nodetypes="cc" />
    <inkscape:path-effect
       effect="bend_path"
       id="path-effect3806-9"
       is_visible="true"
       bendpath="m -1712.9883,1438.1445 c 690.1908,-96.487 654.1098,105.4083 1675.976582,-25"
       prop_scale="1"
       scale_y_rel="false"
       vertical="false"
       bendpath-nodetypes="cc" />
  </defs>
  <sodipodi:namedview
     id="base"
     pagecolor="#ffffff"
     bordercolor="#666666"
     borderopacity="1.0"
     inkscape:pageopacity="0.0"
     inkscape:pageshadow="2"
     inkscape:zoom="0.32"
     inkscape:cx="-4436.4138"
     inkscape:cy="1178.2876"
     inkscape:document-units="mm"
     inkscape:current-layer="layer1"
     showgrid="false"
     inkscape:window-width="1670"
     inkscape:window-height="795"
     inkscape:window-x="120"
     inkscape:window-y="138"
     inkscape:window-maximized="0" />
  <metadata
     id="metadata5">
    <rdf:RDF>
      <cc:Work
         rdf:about="">
        <dc:format>image/svg+xml</dc:format>
        <dc:type
           rdf:resource="http://purl.org/dc/dcmitype/StillImage" />
        <dc:title></dc:title>
      </cc:Work>
    </rdf:RDF>
  </metadata>
  <g
     inkscape:label="Calque 1"
     inkscape:groupmode="layer"
     id="layer1">
    <flowRoot
       xml:space="preserve"
       id="flowRoot3713"
       style="font-style:normal;font-variant:normal;font-weight:normal;font-stretch:normal;font-size:74.66666761px;line-height:1.25;font-family:Angelface;-inkscape-font-specification:Angelface;letter-spacing:0px;word-spacing:0px;fill:#000000;fill-opacity:1;stroke:none;"
       transform="scale(0.26458333)"><flowRegion
         id="flowRegion3715"
         style="font-size:74.66666761px;"><rect
           id="rect3717"
           width="302.85715"
           height="214.28572"
           x="-920"
           y="-11.766029"
           style="font-size:74.66666761px;" /></flowRegion><flowPara
         id="flowPara3719" /></flowRoot>    <text
       xml:space="preserve"
       style="font-style:normal;font-variant:normal;font-weight:normal;font-stretch:normal;font-size:19.75555556px;line-height:1.25;font-family:Angelface;-inkscape-font-specification:Angelface;letter-spacing:0px;word-spacing:0px;fill:#000000;fill-opacity:1;stroke:none;stroke-width:0.26458332;"
       x="-215.44643"
       y="17.297619"
       id="text3723"><tspan
         sodipodi:role="line"
         id="tspan3721"
         x="-215.44643"
         y="24.769451"
         style="stroke-width:0.26458332;font-size:19.75555556px;" /></text>
    <text
       xml:space="preserve"
       style="font-style:normal;font-variant:normal;font-weight:normal;font-stretch:normal;font-size:10.58333302px;line-height:1.25;font-family:Angelface;-inkscape-font-specification:Angelface;letter-spacing:0px;word-spacing:0px;fill:#000000;fill-opacity:1;stroke:none;stroke-width:0.26458332"
       x="-226.02975"
       y="41.488094"
       id="text3727"><tspan
         sodipodi:role="line"
         id="tspan3725"
         x="-226.02975"
         y="48.959927"
         style="font-size:50.79999924px;stroke-width:0.26458332" /></text>
    <text
       xml:space="preserve"
       style="font-style:normal;font-variant:normal;font-weight:normal;font-stretch:normal;font-size:50.79999924px;line-height:1.25;font-family:Angelface;-inkscape-font-specification:Angelface;letter-spacing:0px;word-spacing:0px;fill:#000000;fill-opacity:1;stroke:none;stroke-width:0.26458332"
       x="-763.06067"
       y="-46.198563"
       id="text3731"><tspan
         sodipodi:role="line"
         id="tspan3729"
         x="-763.06067"
         y="-46.198563"
         style="font-size:70.55555725px;stroke-width:0.26458332">Le</tspan></text>
    <text
       xml:space="preserve"
       style="font-style:normal;font-variant:normal;font-weight:normal;font-stretch:normal;font-size:10.58333302px;line-height:0.69999999;font-family:Keraleeyam;-inkscape-font-specification:Keraleeyam;letter-spacing:0px;word-spacing:0px;fill:#000000;fill-opacity:1;stroke:none;stroke-width:0.26458332"
       x="-731.32483"
       y="-9.9128523"
       id="text3735"><tspan
         sodipodi:role="line"
         id="tspan3733"
         x="-731.32483"
         y="-9.9128523"
         style="font-style:normal;font-variant:normal;font-weight:normal;font-stretch:normal;font-size:50.79999924px;line-height:0.69999999;font-family:'Latin Modern Mono Caps';-inkscape-font-specification:'Latin Modern Mono Caps';text-align:center;text-anchor:middle;stroke-width:0.26458332">P</tspan><tspan
         sodipodi:role="line"
         x="-731.32483"
         y="25.647144"
         style="font-style:normal;font-variant:normal;font-weight:normal;font-stretch:normal;font-size:50.79999924px;line-height:0.69999999;font-family:'Latin Modern Mono Caps';-inkscape-font-specification:'Latin Modern Mono Caps';text-align:center;text-anchor:middle;stroke-width:0.26458332"
         id="tspan3737">R</tspan><tspan
         sodipodi:role="line"
         x="-731.32483"
         y="61.20715"
         style="font-style:normal;font-variant:normal;font-weight:normal;font-stretch:normal;font-size:50.79999924px;line-height:0.69999999;font-family:'Latin Modern Mono Caps';-inkscape-font-specification:'Latin Modern Mono Caps';text-align:center;text-anchor:middle;stroke-width:0.26458332"
         id="tspan3739">O</tspan><tspan
         sodipodi:role="line"
         x="-731.32483"
         y="96.767151"
         style="font-style:normal;font-variant:normal;font-weight:normal;font-stretch:normal;font-size:50.79999924px;line-height:0.69999999;font-family:'Latin Modern Mono Caps';-inkscape-font-specification:'Latin Modern Mono Caps';text-align:center;text-anchor:middle;stroke-width:0.26458332"
         id="tspan3741">C</tspan><tspan
         sodipodi:role="line"
         x="-731.32483"
         y="132.32715"
         style="font-style:normal;font-variant:normal;font-weight:normal;font-stretch:normal;font-size:50.79999924px;line-height:0.69999999;font-family:'Latin Modern Mono Caps';-inkscape-font-specification:'Latin Modern Mono Caps';text-align:center;text-anchor:middle;stroke-width:0.26458332"
         id="tspan3743">H</tspan><tspan
         sodipodi:role="line"
         x="-731.32483"
         y="167.88715"
         style="font-style:normal;font-variant:normal;font-weight:normal;font-stretch:normal;font-size:50.79999924px;line-height:0.69999999;font-family:'Latin Modern Mono Caps';-inkscape-font-specification:'Latin Modern Mono Caps';text-align:center;text-anchor:middle;stroke-width:0.26458332"
         id="tspan3745">A</tspan><tspan
         sodipodi:role="line"
         x="-731.32483"
         y="203.44716"
         style="font-style:normal;font-variant:normal;font-weight:normal;font-stretch:normal;font-size:50.79999924px;line-height:0.69999999;font-family:'Latin Modern Mono Caps';-inkscape-font-specification:'Latin Modern Mono Caps';text-align:center;text-anchor:middle;stroke-width:0.26458332"
         id="tspan3747">I</tspan><tspan
         sodipodi:role="line"
         x="-731.32483"
         y="239.00716"
         style="font-style:normal;font-variant:normal;font-weight:normal;font-stretch:normal;font-size:50.79999924px;line-height:0.69999999;font-family:'Latin Modern Mono Caps';-inkscape-font-specification:'Latin Modern Mono Caps';text-align:center;text-anchor:middle;stroke-width:0.26458332"
         id="tspan3749">N</tspan></text>
    <flowRoot
       xml:space="preserve"
       id="flowRoot3751"
       style="fill:black;fill-opacity:1;stroke:none;font-family:Keraleeyam;font-style:normal;font-weight:normal;font-size:40px;line-height:1.25;letter-spacing:0px;word-spacing:0px;-inkscape-font-specification:Keraleeyam;font-stretch:normal;font-variant:normal"><flowRegion
         id="flowRegion3753"><rect
           id="rect3755"
           width="114.28571"
           height="60"
           x="-614.28571"
           y="739.66254" /></flowRegion><flowPara
         id="flowPara3757"></flowPara></flowRoot>    <text
       xml:space="preserve"
       style="font-style:normal;font-variant:normal;font-weight:normal;font-stretch:normal;font-size:10.58333302px;line-height:1.25;font-family:Keraleeyam;-inkscape-font-specification:Keraleeyam;letter-spacing:0px;word-spacing:0px;fill:#000000;fill-opacity:1;stroke:none;stroke-width:0.26458332"
       x="-768.35236"
       y="168.49191"
       id="text3761"><tspan
         sodipodi:role="line"
         id="tspan3759"
         x="-768.35236"
         y="168.49191"
         style="font-size:50.79999924px;stroke-width:0.26458332">PAS</tspan></text>
    <text
       xml:space="preserve"
       style="font-style:normal;font-variant:normal;font-weight:normal;font-stretch:normal;font-size:10.58333302px;line-height:1.25;font-family:Keraleeyam;-inkscape-font-specification:Keraleeyam;letter-spacing:0px;word-spacing:0px;fill:#000000;fill-opacity:1;stroke:none;stroke-width:0.26458332"
       x="178.52029"
       y="-182.32166"
       id="text3784"><tspan
         sodipodi:role="line"
         id="tspan3782"
         x="178.52029"
         y="-182.32166"
         style="font-style:normal;font-variant:normal;font-weight:normal;font-stretch:normal;font-size:35.27777863px;font-family:Sawasdee;-inkscape-font-specification:Sawasdee;stroke-width:0.26458332">vers un équilibre serein</tspan></text>
    <path
       style="font-style:normal;font-variant:normal;font-weight:normal;font-stretch:normal;font-size:10.58333302px;line-height:1.25;font-family:Keraleeyam;-inkscape-font-specification:Keraleeyam;letter-spacing:0px;word-spacing:0px;fill:#000000;fill-opacity:1;stroke:none;stroke-width:0.99999994"
       d="m -807.72491,1389.4675 -5.28982,97.0539 c 2.43271,0.1326 4.86552,0.262 7.29844,0.3883 l 5.03984,-97.067 c -2.34976,-0.122 -4.69925,-0.2471 -7.04846,-0.3752 z m 66.1572,2.8132 -2.71693,88.4343 c -0.11998,3.905 -1.01659,6.7407 -2.29546,8.6554 2.59636,0.082 5.19277,0.1597 7.78922,0.2344 0.96398,-2.448 1.69333,-5.3554 1.78709,-8.6751 l 0.23159,-8.1998 c 3.71255,8.8458 17.22905,18.3703 30.01577,18.6007 21.11812,0.3803 37.4255,-15.122 37.53134,-33.6063 0.10514,-18.3624 -15.85326,-34.0482 -36.30675,-34.4163 -12.41514,-0.2233 -26.16594,8.0908 -30.33235,17.2728 l 1.3583,-48.092 c -2.35414,-0.067 -4.70808,-0.1358 -7.06182,-0.2081 z m -326.25839,-24.5688 c -6.617,5.0535 -13.2366,10.1106 -19.8513,15.1747 2.4607,0.2681 4.92,0.537 7.3781,0.8068 8.6984,-4.8305 17.3973,-9.651 26.0829,-14.4698 -4.5309,-0.5047 -9.0675,-1.009 -13.6097,-1.5117 z m 229.92485,30.2497 c -3.53037,-0.2308 -6.52372,1.9797 -6.71765,4.8376 -0.19833,2.9229 2.4785,5.4544 6.02835,5.6866 3.54988,0.2322 6.45372,-1.9343 6.63825,-4.8581 0.18045,-2.859 -2.41865,-5.4353 -5.94895,-5.6661 z m 66.34421,3.5329 c -3.53804,-0.1459 -6.47761,2.1365 -6.60211,4.9984 -0.12734,2.9268 2.61085,5.3928 6.16769,5.5394 3.55677,0.1466 6.40861,-2.0889 6.52272,-5.0162 0.11158,-2.8625 -2.55018,-5.3758 -6.0883,-5.5216 z m 639.27386,-31.7657 c -3.56032,0.4124 -6.13566,3.1328 -5.80864,5.9788 0.33446,2.9106 3.45445,4.9117 7.0223,4.4984 3.56782,-0.4133 6.0698,-3.0656 5.73006,-5.9756 -0.33219,-2.8454 -3.38334,-4.9141 -6.94372,-4.5016 z m -1328.22492,8.7517 c -10.4627,0.4951 -20.124,6.7792 -19.5501,16.9245 0.5453,9.6412 10.5477,12.7758 20.4508,15.7375 9.9296,2.9696 19.7664,5.7684 20.101,14.4643 0.3427,8.9062 -8.8938,14.8719 -18.2073,15.3131 -8.5319,0.4041 -17.1021,-3.625 -19.2808,-13.9964 -2.3131,0.4075 -4.6252,0.8186 -6.9362,1.2334 -0.036,0.01 -0.072,0.013 -0.1076,0.019 0.047,0.2216 0.096,0.441 0.1477,0.6583 3.1272,13.1611 14.9099,18.4216 26.2948,17.8814 12.9725,-0.6154 25.7078,-8.7627 25.2657,-21.373 -0.3871,-11.042 -10.2298,-15.2041 -20.1369,-18.2921 -9.8805,-3.0796 -19.7801,-5.0742 -20.1514,-12.0543 -0.3494,-6.5679 5.6223,-10.4719 12.3811,-10.7918 5.7783,-0.2734 12.1557,2.3208 14.8354,8.3408 2.2152,-0.7201 4.4326,-1.4368 6.6522,-2.15 -3.8974,-8.5921 -13.1861,-12.3207 -21.7584,-11.915 z m 1039.79612,37.4189 c -10.16145,0.6431 -19.62096,6.9417 -19.02576,17.078 0.56709,9.6576 10.49304,12.7508 20.44794,15.5658 9.94194,2.8113 19.90518,5.3432 20.48964,14.0104 0.60031,8.9021 -8.59874,15.1311 -18.12552,15.7339 -8.71628,0.5515 -17.44617,-3.4264 -19.67192,-13.7982 -2.36753,0.4221 -4.73569,0.8423 -7.10447,1.2605 2.88222,13.6658 15.09562,19.0832 26.98002,18.3317 13.34521,-0.8439 26.02066,-9.4158 25.15113,-22.0211 -0.75901,-11.0033 -10.77341,-14.8568 -20.67373,-17.7354 -9.91285,-2.8823 -19.72849,-4.7942 -20.15085,-11.785 -0.39652,-6.5631 5.44402,-10.5035 12.04553,-10.9213 5.64866,-0.3575 11.96728,2.1 14.76508,8.0459 2.16528,-0.7748 4.3296,-1.5512 6.49298,-2.329 -4.09718,-8.4627 -13.27932,-11.964 -21.62007,-11.4362 z M -1597.188,1389.0068 c -21.1152,2.16 -35.7627,19.6129 -33.6636,37.8474 2.1153,18.3749 19.8443,31.959 40.2739,29.8643 13.1476,-1.348 26.5318,-9.2815 32.1062,-19.3106 -2.1792,-0.7844 -4.3606,-1.5662 -6.5441,-2.3452 -4.8177,8.5409 -15.8436,14.5083 -26.1858,15.5686 -15.9146,1.6316 -31.1878,-8.952 -32.9476,-24.5412 22.5842,-2.5495 45.1964,-4.8457 67.8341,-6.849 -0.1397,-0.968 -0.2794,-1.9359 -0.4192,-2.9039 -3.341,-16.7637 -20.478,-29.374 -40.4539,-27.3304 z m 90.9471,-7.7612 c -8.8672,3.415 -19.0613,12.4998 -21.0444,19.5298 l -0.626,-8.1787 c -0.2535,-3.3113 -1.1257,-6.1813 -2.2088,-8.5799 -2.596,0.2003 -5.1914,0.4047 -7.7863,0.6129 1.368,1.7851 2.4105,4.64 2.7199,8.5345 l 4.5372,57.1068 c 2.37,-0.1883 4.74,-0.3732 7.1102,-0.5546 l -2.5885,-33.8165 c -1.1143,-14.5575 13.6912,-29.6388 28.3096,-30.5753 -2.803,-1.3646 -5.6107,-2.7242 -8.4229,-4.079 z m 277.6308,-0.5032 c -10.289,-0.6813 -22.594,7.7895 -28.8971,17.9621 l 0.5301,-9.8817 c 0.1779,-3.3165 -0.3139,-6.275 -1.0797,-8.794 -2.607,-0.1379 -5.2149,-0.2709 -7.8234,-0.3991 1.1307,1.9468 1.7957,4.9121 1.6001,8.8142 l -2.8684,57.2155 c 2.3673,0.1187 4.7348,0.2416 7.1026,0.3687 l 1.7715,-33.0227 c 0.5309,-9.8969 15.536,-27.3255 29.1138,-26.4273 14.2217,0.9408 16.969,13.026 16.334,21.6362 l -2.9973,40.6443 c 2.3173,0.171 4.6347,0.3454 6.9523,0.5231 l 3.1138,-40.636 c 1.0723,-13.9934 -5.5635,-26.8586 -22.8523,-28.0033 z m 144.6633,13.2928 c -20.8864,-2.287 -38.9358,11.5469 -40.8257,29.8167 -1.9016,18.3831 12.4844,35.5195 33.1016,37.7772 13.2762,1.4539 25.5673,-3.8511 33.0834,-12.579 -1.913,-1.196 -3.8259,-2.3918 -5.7387,-3.5875 -6.3968,7.4112 -16.2573,11.225 -26.6787,10.0838 -16.0398,-1.7564 -28.728,-15.0751 -27.086,-30.7374 22.5989,2.3692 45.181,4.8883 67.762,7.4082 0.064,-1.0625 0.1289,-2.1251 0.1933,-3.1876 0.049,-17.0841 -14.1,-32.836 -33.8112,-34.9944 z m 93.51967,10.3254 c -1.77799,-0.1901 -3.53371,-0.2619 -5.25929,-0.2228 0,0 0,0 0,0 -18.30148,0.4116 -33.29268,13.3091 -35.14538,29.9906 -1.8645,16.7867 9.9328,32.6557 27.9217,36.9757 0,0 0,0 0,0 1.6967,0.4074 3.44787,0.7119 5.2468,0.9045 12.54693,1.3428 27.14213,-5.725 32.0171,-14.6644 l -4.98547,49.2931 c 2.40237,0.2429 4.80562,0.4842 7.20975,0.7235 l 8.91024,-89.4684 c 0.38708,-3.8867 1.39237,-6.7323 2.76786,-8.4928 -2.53758,-0.2516 -5.07536,-0.5055 -7.61336,-0.7614 -1.12059,2.3733 -1.89299,5.2409 -2.22709,8.5443 l -0.82548,8.1618 c -3.01279,-9.1298 -15.66185,-19.6628 -28.01738,-20.9837 z m 373.39787,19.2352 c -5.43492,1.7918 -11.57971,5.706 -16.04692,10.0383 -2.74605,2.664 -4.86518,5.4926 -5.79616,8.0976 l -0.0343,-8.2031 c -0.0139,-3.3195 -0.66217,-6.2487 -1.54453,-8.7187 -2.54114,0.01 -5.08223,0.016 -7.62326,0.019 1.19287,1.8858 1.9933,4.8161 2.00052,8.7216 l 0.1059,57.2913 c 2.43379,0 4.86752,-0.012 7.30117,-0.022 l -0.14197,-33.9178 c -0.0231,-5.526 2.22403,-10.9714 5.77923,-15.6084 5.82454,-7.5953 15.17822,-13.0531 24.0078,-13.1721 -2.67297,-1.5051 -5.34214,-3.0135 -8.00744,-4.5252 z m 55.85583,-1.0849 c -20.5764,0.5676 -36.68532,16.4439 -36.37679,34.7998 0.31068,18.4837 16.78112,33.7945 37.92611,33.2138 13.55374,-0.3723 27.6344,-7.4909 33.81963,-17.2404 0.006,0 -6.47498,-2.7012 -6.46944,-2.6989 -5.35956,8.2736 -16.90899,13.5313 -27.51827,13.8227 -16.39115,0.4503 -30.72205,-11.5271 -31.01694,-27.2172 22.71063,-0.4268 45.41701,-1.0805 68.11655,-1.9392 -0.0907,-0.9738 -0.18128,-1.9476 -0.27185,-2.9215 -2.48505,-16.9104 -18.72247,-30.3567 -38.209,-29.8191 z m 222.59772,-12.3982 c -20.60921,1.6574 -35.82966,18.42 -34.49208,36.731 1.34693,18.439 18.62826,32.7949 39.6253,31.107 13.46778,-1.0827 27.13502,-8.9037 32.81592,-18.9448 -2.19703,-0.7894 -4.39306,-1.5801 -6.58807,-2.3722 -4.92828,8.5295 -16.16904,14.3697 -26.71807,15.2177 -16.28798,1.3093 -31.24602,-9.8542 -32.41044,-25.5034 22.65445,-1.6857 45.2968,-3.5255 67.92701,-5.5063 -0.13873,-0.9682 -0.27743,-1.9363 -0.4161,-2.9044 -3.31938,-16.7661 -20.23221,-29.3937 -39.74347,-27.8246 z m 89.15838,-7.9195 c -8.53318,3.6347 -18.42736,12.9475 -20.26235,19.9735 l -0.75973,-8.1677 c -0.30746,-3.3055 -1.21466,-6.1648 -2.31707,-8.5467 -2.54291,0.2359 -5.08589,0.47 -7.62895,0.7024 1.36354,1.7708 2.42612,4.6167 2.7829,8.5061 l 5.23321,57.0497 c 2.41216,-0.2213 4.82411,-0.4441 7.23585,-0.6684 l -3.14127,-33.7711 c -1.3498,-14.5115 13.06165,-29.8575 27.25214,-31.252 -2.80024,-1.2732 -5.59849,-2.5485 -8.39473,-3.8258 z m 55.83194,-5.6732 c -20.59742,2.1874 -35.37148,19.3581 -33.54261,37.6258 1.84172,18.3961 19.49302,32.281 40.40594,30.0618 13.41703,-1.4237 26.87642,-9.579 32.3072,-19.7539 -2.21521,-0.7359 -4.42965,-1.4729 -6.6433,-2.211 -4.71442,8.647 -15.79755,14.7644 -26.3097,15.8799 -16.22727,1.722 -31.47048,-9.0401 -33.05098,-24.6522 22.60226,-2.2882 45.19233,-4.7025 67.77017,-7.23 -0.16131,-0.9647 -0.32259,-1.9293 -0.48385,-2.8939 -3.72428,-16.6823 -20.95427,-28.8973 -40.45287,-26.8265 z m 127.779136,-14.786 c -9.983421,1.2434 -20.383403,11.7664 -24.770533,22.8518 l -1.188878,-9.8251 c -0.398833,-3.2961 -1.385571,-6.1291 -2.555042,-8.4796 -2.539362,0.3068 -5.0788,0.6122 -7.618313,0.9163 1.41469,1.7318 2.557501,4.5468 3.023019,8.425 l 6.828125,56.8847 c 2.401757,-0.2883 4.803305,-0.5777 7.204644,-0.8683 l -3.973001,-32.8339 c -1.188263,-9.8201 10.467433,-29.5992 23.61473,-31.2365 13.884801,-1.729 18.94579,9.4901 20.035429,18.0871 l 5.124415,40.4308 c 2.345166,-0.2973 4.690132,-0.5956 7.034897,-0.8949 l -5.158487,-40.4261 c -1.780946,-13.957 -10.797904,-25.1241 -27.601005,-23.0313 z m -1651.974446,23.0279 c 14.9289,20.7879 29.6636,41.6619 44.1714,62.6258 8.5651,-23.9606 17.36,-47.893 26.4159,-71.7899 -2.6863,0.32 -5.3719,0.6434 -8.0569,0.9702 -7.0002,18.5832 -13.8456,37.187 -20.5508,55.8079 -11.2957,-16.2815 -22.7265,-32.5089 -34.2772,-48.6838 -2.5681,0.354 -5.1356,0.7106 -7.7024,1.0698 z m 366.8897,-27.4545 -0.2189,40.8182 c -0.077,14.2591 12.6558,26.2128 28.7312,26.5457 6.7397,0.1396 12.9137,-1.7286 17.8929,-4.9703 7.0626,-4.6009 11.7614,-11.9972 12.0665,-20.3552 l 1.4888,-40.7915 c -2.4499,-0.09 -4.9005,-0.1746 -7.3517,-0.2549 l -1.3309,40.7979 c -0.1447,4.4353 -1.8599,8.4719 -4.6036,11.7209 -4.2597,5.0427 -11.0088,8.2059 -18.3604,8.055 -11.9715,-0.2459 -21.437,-9.3674 -21.334,-20.6956 l 0.371,-40.817 c -2.4504,-0.022 -4.9007,-0.04 -7.3509,-0.053 z m 423.64429,34.451 -3.78916,40.6445 c -1.32315,14.1929 10.50053,27.2815 27.10258,28.6953 16.77527,1.4285 30.65433,-9.4794 31.73507,-23.6953 l 3.09425,-40.7012 c -2.37505,-0.1805 -4.75026,-0.364 -7.12562,-0.5502 l -3.18907,40.694 c -0.88515,11.2949 -11.97513,19.5079 -24.34461,18.4533 -12.28228,-1.0472 -21.09471,-10.9509 -20.06428,-22.2307 l 3.71357,-40.6511 c -2.3774,-0.2173 -4.75498,-0.4369 -7.13273,-0.6586 z m 84.41883,6.8212 -4.40081,65.8673 c 2.43113,0.1625 4.86284,0.322 7.29512,0.4782 l 4.22707,-65.8795 c -2.37365,-0.1521 -4.74744,-0.3075 -7.12138,-0.466 z m 66.84302,3.6459 -2.8025,65.9551 c 2.43358,0.1034 4.86723,0.2037 7.30095,0.301 l 2.6359,-65.962 c -2.3783,-0.095 -4.75642,-0.193 -7.13435,-0.2941 z m 642.53449,-31.3235 7.56318,65.5833 c 2.40371,-0.2772 4.80722,-0.5556 7.21052,-0.8352 l -7.62975,-65.5757 c -2.38125,0.2771 -4.76257,0.553 -7.14395,0.8276 z m -1463.14093,3.9337 c 14.4035,-1.4736 27.7686,6.7711 31.9333,19.6009 -19.687,1.8009 -39.3522,3.8192 -58.994,6.029 1.4082,-13.3967 12.7415,-24.1649 27.0607,-25.6299 z m 512.0066,5.0241 c 14.256,1.561 25.5821,12.3307 27.0773,25.7277 -19.6047,-2.1858 -39.2211,-4.3591 -58.8595,-6.4222 4.2537,-12.7817 17.5931,-20.8592 31.7822,-19.3055 z m 93.53435,10.327 c 16.08591,1.7199 28.61401,15.4205 27.02896,31.0924 -1.57925,15.6145 -16.70358,26.7159 -33.02575,24.9692 -1.7914,-0.1917 -3.53966,-0.5342 -5.22986,-1.0128 0,0 0,0 0,0 -13.5979,-3.8507 -23.3865,-16.4948 -21.8522,-30.3642 1.5411,-13.9299 13.8297,-23.9672 27.80347,-24.8069 0,0 0,0 0,0 1.7372,-0.1047 3.50129,-0.067 5.27538,0.1223 z m 285.41304,18.9797 c 15.9132,0.2864 29.79523,12.7607 29.67005,28.5117 -0.12471,15.6927 -14.33505,28.1547 -30.6849,27.8603 -16.59416,-0.2989 -30.10721,-13.263 -29.66419,-28.9486 0.44472,-15.7457 14.52861,-27.714 30.67904,-27.4234 z m 144.62536,-0.7987 c 14.13749,-0.39 26.82785,8.6101 30.26012,21.6433 -19.67737,0.7031 -39.35834,1.25 -59.0412,1.6264 2.63194,-13.1988 14.72502,-22.882 28.78108,-23.2697 z m 222.90602,-12.4148 c 14.14364,-1.1375 27.29431,7.211 31.3774,20.0564 -19.62664,1.6894 -39.26162,3.2713 -58.90492,4.7372 1.89941,-13.3264 13.46453,-23.6626 27.52752,-24.7936 z m 145.13922,-13.6063 c 14.12949,-1.5005 27.49439,6.5215 31.89148,19.2645 -19.58593,2.1695 -39.18027,4.2526 -58.78301,6.2409 1.54526,-13.3727 12.84261,-24.0135 26.89153,-25.5054 z"
       transform="matrix(0.26458333,0,0,0.26458333,-498.2411,-122.7912)"
       id="text3784-0"
       inkscape:path-effect="#path-effect3806"
       inkscape:original-d="m -788.37891,1273.2363 v 97.1992 h 5.85938 v -97.1992 z m 54.94727,0 v 88.4766 c 0,3.9062 -0.65039,6.7695 -1.62695,8.7226 h 6.25 c 0.71614,-2.4739 1.23632,-5.4023 1.23632,-8.7226 v -8.2031 c 3.19011,8.7239 14.25912,17.9023 24.48047,17.9023 16.86198,0 29.94727,-15.5592 29.94727,-34.0488 0,-18.3594 -13.08529,-33.9844 -29.94727,-33.9844 -10.22135,0 -21.29036,8.6589 -24.48047,17.9688 v -48.1114 z m -269.53126,2.2129 -14.582,17.252 h 5.9883 l 19.66207,-17.252 z m 190.03907,8.0723 c -2.92969,0 -5.27344,2.4088 -5.27344,5.2734 0,2.9297 2.34375,5.2735 5.27344,5.2735 2.92969,0 5.20899,-2.3438 5.20899,-5.2735 0,-2.8646 -2.2793,-5.2734 -5.20899,-5.2734 z m 54.94922,0 c -2.92969,0 -5.27344,2.4088 -5.27344,5.2734 0,2.9297 2.34375,5.2735 5.27344,5.2735 2.92969,0 5.20703,-2.3438 5.20703,-5.2735 0,-2.8646 -2.27734,-5.2734 -5.20703,-5.2734 z m 526.49609,0 c -2.92968,0 -5.27343,2.4088 -5.27343,5.2734 0,2.9297 2.34375,5.2735 5.27343,5.2735 2.92969,0 5.20899,-2.3438 5.20899,-5.2735 0,-2.8646 -2.2793,-5.2734 -5.20899,-5.2734 z m -1083.65818,19.7265 c -8.3334,0 -16.3418,5.7305 -16.3418,15.8868 0,19.3359 31.6406,14.7129 31.6406,32.0957 0,8.9192 -7.7474,14.5175 -15.4297,14.5175 -7.0312,0 -13.8659,-4.4908 -15.1679,-14.9726 l -5.795,0.8457 c 1.6927,13.8021 11.2637,19.9219 20.834,19.9219 10.7422,0 21.418,-7.6823 21.418,-20.3125 0,-22.0703 -31.5098,-18.0983 -31.5098,-32.0957 0,-6.5756 4.9479,-10.1563 10.3516,-10.1563 4.6224,0 9.6347,2.8646 11.5879,8.9844 l 5.4043,-1.8887 c -2.8646,-8.7239 -10.1563,-12.8262 -16.9922,-12.8262 z m 845.44334,0 c -8.33333,0 -16.3418,5.7305 -16.3418,15.8868 0,19.3359 31.64063,14.7129 31.64063,32.0957 0,8.9192 -7.7474,14.5175 -15.42969,14.5175 -7.03125,0 -13.86784,-4.4908 -15.16992,-14.9726 l -5.79297,0.8457 c 1.69271,13.8021 11.26172,19.9219 20.83203,19.9219 10.74219,0 21.41992,-7.6823 21.41992,-20.3125 0,-22.0703 -31.50976,-18.0983 -31.50976,-32.0957 0,-6.5756 4.94791,-10.1563 10.35156,-10.1563 4.6224,0 9.63477,2.8646 11.58789,8.9844 l 5.4043,-1.8887 c -2.86459,-8.7239 -10.15625,-12.8262 -16.99219,-12.8262 z m -955.07814,0.1309 c -16.9271,0 -30.2734,15.625 -30.2734,33.9844 0,18.4896 13.0846,34.0488 30.0117,34.0488 10.8724,0 22.3965,-6.6393 27.6699,-16.1445 l -5.1426,-2.9297 c -4.5573,8.0729 -13.9987,12.9551 -22.5273,12.9551 -13.151,0 -24.543,-12.2396 -24.543,-27.9297 h 55.2735 l -0.1309,-2.9297 c -1.4974,-16.9922 -14.3223,-31.0547 -30.3379,-31.0547 z m 73.0469,0 c -7.2266,2.7995 -15.9505,11.1328 -17.9688,17.9688 v -8.2032 c 0,-3.3203 -0.5221,-6.2506 -1.2382,-8.7246 h -6.25 c 0.9765,1.888 1.6289,4.8184 1.6289,8.7246 v 57.291 h 5.8593 v -33.9179 c 0,-14.5834 12.8249,-28.5156 24.4786,-28.5156 z m 221.5488,0 c -8.2031,0 -17.6432,9.1803 -22.2656,19.6621 v -9.8965 c 0,-3.3203 -0.5202,-6.2506 -1.2363,-8.7246 h -6.25 c 0.9765,1.888 1.6269,4.8184 1.6269,8.7246 v 57.291 h 5.8594 v -33.0722 c 0,-9.8959 11.3275,-28.125 22.1348,-28.125 11.3932,0 14.3242,11.7845 14.3242,20.4433 v 40.7539 h 5.7285 v -40.7539 c 0,-14.0625 -6.1198,-26.3027 -19.9219,-26.3027 z m 116.6016,0 c -16.9271,0 -30.2735,15.625 -30.2735,33.9844 0,18.4896 13.0866,34.0488 30.0137,34.0488 10.8724,0 20.31252,-6.6393 25.58595,-16.1445 l -4.94922,-2.9297 c -4.49218,8.0729 -12.10803,12.9551 -20.63673,12.9551 -13.151,0 -24.5449,-11.9147 -24.5449,-27.67 h 55.27343 l -0.13086,-3.1894 c -1.49739,-16.9922 -14.32226,-31.0547 -30.33787,-31.0547 z m 76.36717,0 c -16.92708,0 -30.01367,15.625 -30.01367,33.9844 0,18.4896 13.08659,34.0488 30.01367,34.0488 10.15625,0 21.28841,-8.5273 24.47851,-17.9023 v 49.5429 h 5.79493 v -89.9082 c 0,-3.9062 0.58593,-6.8366 1.5625,-8.7246 h -6.25 c -0.71615,2.474 -1.10743,5.4043 -1.10743,8.7246 v 8.2032 c -3.1901,-8.7891 -14.32226,-17.9688 -24.47851,-17.9688 z m 306.70508,0 c -7.22657,2.7995 -15.95052,11.1328 -17.96875,17.9688 v -8.2032 c 0,-3.3203 -0.52019,-6.2506 -1.23633,-8.7246 h -6.25 c 0.97656,1.888 1.62695,4.8184 1.62695,8.7246 v 57.291 h 5.85938 v -33.9179 c 0,-14.5834 12.82682,-28.5156 24.48047,-28.5156 z m 45.76953,0 c -16.92709,0 -30.27344,15.625 -30.27344,33.9844 0,18.4896 13.08464,34.0488 30.01172,34.0488 10.8724,0 22.39648,-6.6393 27.66992,-16.1445 l -5.14258,-2.9297 c -4.55729,8.0729 -13.99869,12.9551 -22.52734,12.9551 -13.15104,0 -24.54297,-12.2396 -24.54297,-27.9297 h 55.27344 l -0.13086,-2.9297 c -1.4974,-16.9922 -14.32227,-31.0547 -30.33789,-31.0547 z m 182.29101,0 c -16.92708,0 -30.27343,15.625 -30.27343,33.9844 0,18.4896 13.08658,34.0488 30.01367,34.0488 10.87239,0 22.39453,-6.6393 27.66797,-16.1445 l -5.14258,-2.9297 c -4.55729,8.0729 -13.99675,12.9551 -22.52539,12.9551 -13.15104,0 -24.54492,-12.2396 -24.54492,-27.9297 h 55.27343 l -0.13086,-2.9297 c -1.49739,-16.9922 -14.32226,-31.0547 -30.33789,-31.0547 z m 73.04688,0 c -7.22656,2.7995 -15.95052,11.1328 -17.96875,17.9688 v -8.2032 c 0,-3.3203 -0.52018,-6.2506 -1.23633,-8.7246 h -6.25 c 0.97656,1.888 1.62695,4.8184 1.62695,8.7246 v 57.291 h 5.85938 v -33.9179 c 0,-14.5834 12.82487,-28.5156 24.47851,-28.5156 z m 45.76758,0 c -16.92709,0 -30.27344,15.625 -30.27344,33.9844 0,18.4896 13.08659,34.0488 30.01367,34.0488 10.8724,0 22.39649,-6.6393 27.66992,-16.1445 l -5.14453,-2.9297 c -4.55729,8.0729 -13.99674,12.9551 -22.52539,12.9551 -13.15104,0 -24.54492,-12.2396 -24.54492,-27.9297 h 55.27344 l -0.12891,-2.9297 c -1.4974,-16.9922 -14.32422,-31.0547 -30.33984,-31.0547 z m 104.81836,0 c -8.20313,0 -17.64323,9.1803 -22.26563,19.6621 v -9.8965 c 0,-3.3203 -0.52018,-6.2506 -1.23633,-8.7246 h -6.25 c 0.97657,1.888 1.62696,4.8184 1.62696,8.7246 v 57.291 h 5.85937 v -33.0722 c 0,-9.8959 11.32747,-28.125 22.13477,-28.125 11.39323,0 14.32422,11.7845 14.32422,20.4433 v 40.7539 h 5.72851 v -40.7539 c 0,-14.0625 -6.11979,-26.3027 -19.92187,-26.3027 z m -1343.55471,1.041 28.711,67.9688 28.4511,-67.9688 h -6.5117 l -22.1348,52.8008 -22.2656,-52.8008 z m 294.6621,0 v 40.8203 c 0,14.2578 10.4818,26.1719 23.8282,26.1719 13.4765,0 23.957,-11.9141 23.957,-26.1719 v -40.8203 h -5.8594 v 40.8203 c 0,11.3282 -8.3984,20.3789 -18.3594,20.3789 -9.8958,0 -17.707,-9.0507 -17.707,-20.3789 v -40.8203 z m 342.44729,0 v 40.8203 c 0,14.2578 10.48177,26.1719 23.82813,26.1719 13.47656,0 23.95898,-11.9141 23.95898,-26.1719 v -40.8203 h -5.85937 v 40.8203 c 0,11.3282 -8.39844,20.3789 -18.35938,20.3789 -9.89583,0 -17.70898,-9.0507 -17.70898,-20.3789 v -40.8203 z m 69.40039,0 v 66.0156 h 5.85938 v -66.0156 z m 54.94922,0 v 66.0156 h 5.85938 v -66.0156 z m 526.4961,0 v 66.0156 h 5.85937 v -66.0156 z m -1190.3633,4.8184 c 11.5886,0 21.6791,9.4407 24.0879,22.5918 h -47.9824 c 2.3437,-13.1511 12.3711,-22.5918 23.8945,-22.5918 z m 411.1973,0 c 11.5885,0 21.67902,9.4407 24.08787,22.5918 h -47.98047 c 2.3438,-13.1511 12.3691,-22.5918 23.8926,-22.5918 z m 76.36717,0 c 13.21614,0 24.47851,12.3698 24.47851,28.125 0,15.6901 -11.26237,28.2558 -24.47851,28.2558 -13.15104,0 -24.54492,-12.5657 -24.54492,-28.2558 0,-15.7552 11.39388,-28.125 24.54492,-28.125 z m 234.11523,0 c 13.08594,0 24.47852,12.3698 24.47852,28.125 0,15.6901 -11.39258,28.2558 -24.47852,28.2558 -13.28125,0 -24.48047,-12.5657 -24.48047,-28.2558 0,-15.7552 11.19922,-28.125 24.48047,-28.125 z m 118.35938,0 c 11.58854,0 21.67903,9.4407 24.08789,22.5918 h -47.98242 c 2.34375,-13.1511 12.37109,-22.5918 23.89453,-22.5918 z m 182.29101,0 c 11.58855,0 21.67904,9.4407 24.08789,22.5918 h -47.98046 c 2.34375,-13.1511 12.36914,-22.5918 23.89257,-22.5918 z m 118.81446,0 c 11.58854,0 21.68099,9.4407 24.08984,22.5918 h -47.98242 c 2.34375,-13.1511 12.36914,-22.5918 23.89258,-22.5918 z"
       inkscape:connector-curvature="0" />
    <text
       xml:space="preserve"
       style="font-style:normal;font-variant:normal;font-weight:normal;font-stretch:normal;font-size:50.79999924px;line-height:1.25;font-family:Angelface;-inkscape-font-specification:Angelface;letter-spacing:0px;word-spacing:0px;fill:#0000ff;fill-opacity:1;stroke:none;stroke-width:0.26458332;"
       x="-1328.8312"
       y="-153.72499"
       id="text3731-2"><tspan
         sodipodi:role="line"
         id="tspan3729-1"
         x="-1328.8312"
         y="-153.72499"
         style="font-size:70.55555725px;stroke-width:0.26458332;fill:#0000ff;">Le</tspan></text>
    <text
       xml:space="preserve"
       style="font-style:normal;font-variant:normal;font-weight:normal;font-stretch:normal;font-size:10.58333302px;line-height:0.69999999;font-family:Keraleeyam;-inkscape-font-specification:Keraleeyam;letter-spacing:0px;word-spacing:0px;fill:#aa4400;fill-opacity:1;stroke:none;stroke-width:0.26458332;"
       x="-1297.0953"
       y="-117.43927"
       id="text3735-7"><tspan
         sodipodi:role="line"
         id="tspan3733-7"
         x="-1297.0953"
         y="-117.43927"
         style="font-style:normal;font-variant:normal;font-weight:normal;font-stretch:normal;font-size:50.79999924px;line-height:0.69999999;font-family:'Latin Modern Mono Caps';-inkscape-font-specification:'Latin Modern Mono Caps';text-align:center;text-anchor:middle;stroke-width:0.26458332;fill:#aa4400;">P</tspan><tspan
         sodipodi:role="line"
         x="-1297.0953"
         y="-81.879272"
         style="font-style:normal;font-variant:normal;font-weight:normal;font-stretch:normal;font-size:50.79999924px;line-height:0.69999999;font-family:'Latin Modern Mono Caps';-inkscape-font-specification:'Latin Modern Mono Caps';text-align:center;text-anchor:middle;stroke-width:0.26458332;fill:#aa4400;"
         id="tspan3737-9">R</tspan><tspan
         sodipodi:role="line"
         x="-1297.0953"
         y="-46.319275"
         style="font-style:normal;font-variant:normal;font-weight:normal;font-stretch:normal;font-size:50.79999924px;line-height:0.69999999;font-family:'Latin Modern Mono Caps';-inkscape-font-specification:'Latin Modern Mono Caps';text-align:center;text-anchor:middle;stroke-width:0.26458332;fill:#aa4400;"
         id="tspan3739-7">O</tspan><tspan
         sodipodi:role="line"
         x="-1297.0953"
         y="-10.759276"
         style="font-style:normal;font-variant:normal;font-weight:normal;font-stretch:normal;font-size:50.79999924px;line-height:0.69999999;font-family:'Latin Modern Mono Caps';-inkscape-font-specification:'Latin Modern Mono Caps';text-align:center;text-anchor:middle;stroke-width:0.26458332;fill:#aa4400;"
         id="tspan3741-6">C</tspan><tspan
         sodipodi:role="line"
         x="-1297.0953"
         y="24.800722"
         style="font-style:normal;font-variant:normal;font-weight:normal;font-stretch:normal;font-size:50.79999924px;line-height:0.69999999;font-family:'Latin Modern Mono Caps';-inkscape-font-specification:'Latin Modern Mono Caps';text-align:center;text-anchor:middle;stroke-width:0.26458332;fill:#aa4400;"
         id="tspan3743-2">H</tspan><tspan
         sodipodi:role="line"
         x="-1297.0953"
         y="60.360722"
         style="font-style:normal;font-variant:normal;font-weight:normal;font-stretch:normal;font-size:50.79999924px;line-height:0.69999999;font-family:'Latin Modern Mono Caps';-inkscape-font-specification:'Latin Modern Mono Caps';text-align:center;text-anchor:middle;stroke-width:0.26458332;fill:#aa4400;"
         id="tspan3745-7">A</tspan><tspan
         sodipodi:role="line"
         x="-1297.0953"
         y="95.920723"
         style="font-style:normal;font-variant:normal;font-weight:normal;font-stretch:normal;font-size:50.79999924px;line-height:0.69999999;font-family:'Latin Modern Mono Caps';-inkscape-font-specification:'Latin Modern Mono Caps';text-align:center;text-anchor:middle;stroke-width:0.26458332;fill:#aa4400;"
         id="tspan3747-1">I</tspan><tspan
         sodipodi:role="line"
         x="-1297.0953"
         y="131.48071"
         style="font-style:normal;font-variant:normal;font-weight:normal;font-stretch:normal;font-size:50.79999924px;line-height:0.69999999;font-family:'Latin Modern Mono Caps';-inkscape-font-specification:'Latin Modern Mono Caps';text-align:center;text-anchor:middle;stroke-width:0.26458332;fill:#aa4400;"
         id="tspan3749-5">N</tspan></text>
    <text
       xml:space="preserve"
       style="font-style:normal;font-variant:normal;font-weight:normal;font-stretch:normal;font-size:10.58333302px;line-height:1.25;font-family:Keraleeyam;-inkscape-font-specification:Keraleeyam;letter-spacing:0px;word-spacing:0px;fill:#0000ff;fill-opacity:1;stroke:none;stroke-width:0.26458332;"
       x="-1334.1229"
       y="60.965496"
       id="text3761-8"><tspan
         sodipodi:role="line"
         id="tspan3759-8"
         x="-1334.1229"
         y="60.965496"
         style="font-size:50.79999924px;stroke-width:0.26458332;fill:#0000ff;">PAS</tspan></text>
    <path
       style="font-style:normal;font-variant:normal;font-weight:normal;font-stretch:normal;font-size:10.58333302px;line-height:1.25;font-family:Keraleeyam;-inkscape-font-specification:Keraleeyam;letter-spacing:0px;word-spacing:0px;fill:#008000;fill-opacity:1;stroke:none;stroke-width:0.99999994"
       d="m -807.72491,1389.4675 -5.28982,97.0539 c 2.43271,0.1326 4.86552,0.262 7.29844,0.3883 l 5.03984,-97.067 c -2.34976,-0.122 -4.69925,-0.2471 -7.04846,-0.3752 z m 66.1572,2.8132 -2.71693,88.4343 c -0.11998,3.905 -1.01659,6.7407 -2.29546,8.6554 2.59636,0.082 5.19277,0.1597 7.78922,0.2344 0.96398,-2.448 1.69333,-5.3554 1.78709,-8.6751 l 0.23159,-8.1998 c 3.71255,8.8458 17.22905,18.3703 30.01577,18.6007 21.11812,0.3803 37.4255,-15.122 37.53134,-33.6063 0.10514,-18.3624 -15.85326,-34.0482 -36.30675,-34.4163 -12.41514,-0.2233 -26.16594,8.0908 -30.33235,17.2728 l 1.3583,-48.092 c -2.35414,-0.067 -4.70808,-0.1358 -7.06182,-0.2081 z m -326.25839,-24.5688 c -6.617,5.0535 -13.2366,10.1106 -19.8513,15.1747 2.4607,0.2681 4.92,0.537 7.3781,0.8068 8.6984,-4.8305 17.3973,-9.651 26.0829,-14.4698 -4.5309,-0.5047 -9.0675,-1.009 -13.6097,-1.5117 z m 229.92485,30.2497 c -3.53037,-0.2308 -6.52372,1.9797 -6.71765,4.8376 -0.19833,2.9229 2.4785,5.4544 6.02835,5.6866 3.54988,0.2322 6.45372,-1.9343 6.63825,-4.8581 0.18045,-2.859 -2.41865,-5.4353 -5.94895,-5.6661 z m 66.34421,3.5329 c -3.53804,-0.1459 -6.47761,2.1365 -6.60211,4.9984 -0.12734,2.9268 2.61085,5.3928 6.16769,5.5394 3.55677,0.1466 6.40861,-2.0889 6.52272,-5.0162 0.11158,-2.8625 -2.55018,-5.3758 -6.0883,-5.5216 z m 639.27386,-31.7657 c -3.56032,0.4124 -6.13566,3.1328 -5.80864,5.9788 0.33446,2.9106 3.45445,4.9117 7.0223,4.4984 3.56782,-0.4133 6.0698,-3.0656 5.73006,-5.9756 -0.33219,-2.8454 -3.38334,-4.9141 -6.94372,-4.5016 z m -1328.22492,8.7517 c -10.4627,0.4951 -20.124,6.7792 -19.5501,16.9245 0.5453,9.6412 10.5477,12.7758 20.4508,15.7375 9.9296,2.9696 19.7664,5.7684 20.101,14.4643 0.3427,8.9062 -8.8938,14.8719 -18.2073,15.3131 -8.5319,0.4041 -17.1021,-3.625 -19.2808,-13.9964 -2.3131,0.4075 -4.6252,0.8186 -6.9362,1.2334 -0.036,0.01 -0.072,0.013 -0.1076,0.019 0.047,0.2216 0.096,0.441 0.1477,0.6583 3.1272,13.1611 14.9099,18.4216 26.2948,17.8814 12.9725,-0.6154 25.7078,-8.7627 25.2657,-21.373 -0.3871,-11.042 -10.2298,-15.2041 -20.1369,-18.2921 -9.8805,-3.0796 -19.7801,-5.0742 -20.1514,-12.0543 -0.3494,-6.5679 5.6223,-10.4719 12.3811,-10.7918 5.7783,-0.2734 12.1557,2.3208 14.8354,8.3408 2.2152,-0.7201 4.4326,-1.4368 6.6522,-2.15 -3.8974,-8.5921 -13.1861,-12.3207 -21.7584,-11.915 z m 1039.79612,37.4189 c -10.16145,0.6431 -19.62096,6.9417 -19.02576,17.078 0.56709,9.6576 10.49304,12.7508 20.44794,15.5658 9.94194,2.8113 19.90518,5.3432 20.48964,14.0104 0.60031,8.9021 -8.59874,15.1311 -18.12552,15.7339 -8.71628,0.5515 -17.44617,-3.4264 -19.67192,-13.7982 -2.36753,0.4221 -4.73569,0.8423 -7.10447,1.2605 2.88222,13.6658 15.09562,19.0832 26.98002,18.3317 13.34521,-0.8439 26.02066,-9.4158 25.15113,-22.0211 -0.75901,-11.0033 -10.77341,-14.8568 -20.67373,-17.7354 -9.91285,-2.8823 -19.72849,-4.7942 -20.15085,-11.785 -0.39652,-6.5631 5.44402,-10.5035 12.04553,-10.9213 5.64866,-0.3575 11.96728,2.1 14.76508,8.0459 2.16528,-0.7748 4.3296,-1.5512 6.49298,-2.329 -4.09718,-8.4627 -13.27932,-11.964 -21.62007,-11.4362 z M -1597.188,1389.0068 c -21.1152,2.16 -35.7627,19.6129 -33.6636,37.8474 2.1153,18.3749 19.8443,31.959 40.2739,29.8643 13.1476,-1.348 26.5318,-9.2815 32.1062,-19.3106 -2.1792,-0.7844 -4.3606,-1.5662 -6.5441,-2.3452 -4.8177,8.5409 -15.8436,14.5083 -26.1858,15.5686 -15.9146,1.6316 -31.1878,-8.952 -32.9476,-24.5412 22.5842,-2.5495 45.1964,-4.8457 67.8341,-6.849 -0.1397,-0.968 -0.2794,-1.9359 -0.4192,-2.9039 -3.341,-16.7637 -20.478,-29.374 -40.4539,-27.3304 z m 90.9471,-7.7612 c -8.8672,3.415 -19.0613,12.4998 -21.0444,19.5298 l -0.626,-8.1787 c -0.2535,-3.3113 -1.1257,-6.1813 -2.2088,-8.5799 -2.596,0.2003 -5.1914,0.4047 -7.7863,0.6129 1.368,1.7851 2.4105,4.64 2.7199,8.5345 l 4.5372,57.1068 c 2.37,-0.1883 4.74,-0.3732 7.1102,-0.5546 l -2.5885,-33.8165 c -1.1143,-14.5575 13.6912,-29.6388 28.3096,-30.5753 -2.803,-1.3646 -5.6107,-2.7242 -8.4229,-4.079 z m 277.6308,-0.5032 c -10.289,-0.6813 -22.594,7.7895 -28.8971,17.9621 l 0.5301,-9.8817 c 0.1779,-3.3165 -0.3139,-6.275 -1.0797,-8.794 -2.607,-0.1379 -5.2149,-0.2709 -7.8234,-0.3991 1.1307,1.9468 1.7957,4.9121 1.6001,8.8142 l -2.8684,57.2155 c 2.3673,0.1187 4.7348,0.2416 7.1026,0.3687 l 1.7715,-33.0227 c 0.5309,-9.8969 15.536,-27.3255 29.1138,-26.4273 14.2217,0.9408 16.969,13.026 16.334,21.6362 l -2.9973,40.6443 c 2.3173,0.171 4.6347,0.3454 6.9523,0.5231 l 3.1138,-40.636 c 1.0723,-13.9934 -5.5635,-26.8586 -22.8523,-28.0033 z m 144.6633,13.2928 c -20.8864,-2.287 -38.9358,11.5469 -40.8257,29.8167 -1.9016,18.3831 12.4844,35.5195 33.1016,37.7772 13.2762,1.4539 25.5673,-3.8511 33.0834,-12.579 -1.913,-1.196 -3.8259,-2.3918 -5.7387,-3.5875 -6.3968,7.4112 -16.2573,11.225 -26.6787,10.0838 -16.0398,-1.7564 -28.728,-15.0751 -27.086,-30.7374 22.5989,2.3692 45.181,4.8883 67.762,7.4082 0.064,-1.0625 0.1289,-2.1251 0.1933,-3.1876 0.049,-17.0841 -14.1,-32.836 -33.8112,-34.9944 z m 93.51967,10.3254 c -1.77799,-0.1901 -3.53371,-0.2619 -5.25929,-0.2228 0,0 0,0 0,0 -18.30148,0.4116 -33.29268,13.3091 -35.14538,29.9906 -1.8645,16.7867 9.9328,32.6557 27.9217,36.9757 0,0 0,0 0,0 1.6967,0.4074 3.44787,0.7119 5.2468,0.9045 12.54693,1.3428 27.14213,-5.725 32.0171,-14.6644 l -4.98547,49.2931 c 2.40237,0.2429 4.80562,0.4842 7.20975,0.7235 l 8.91024,-89.4684 c 0.38708,-3.8867 1.39237,-6.7323 2.76786,-8.4928 -2.53758,-0.2516 -5.07536,-0.5055 -7.61336,-0.7614 -1.12059,2.3733 -1.89299,5.2409 -2.22709,8.5443 l -0.82548,8.1618 c -3.01279,-9.1298 -15.66185,-19.6628 -28.01738,-20.9837 z m 373.39787,19.2352 c -5.43492,1.7918 -11.57971,5.706 -16.04692,10.0383 -2.74605,2.664 -4.86518,5.4926 -5.79616,8.0976 l -0.0343,-8.2031 c -0.0139,-3.3195 -0.66217,-6.2487 -1.54453,-8.7187 -2.54114,0.01 -5.08223,0.016 -7.62326,0.019 1.19287,1.8858 1.9933,4.8161 2.00052,8.7216 l 0.1059,57.2913 c 2.43379,0 4.86752,-0.012 7.30117,-0.022 l -0.14197,-33.9178 c -0.0231,-5.526 2.22403,-10.9714 5.77923,-15.6084 5.82454,-7.5953 15.17822,-13.0531 24.0078,-13.1721 -2.67297,-1.5051 -5.34214,-3.0135 -8.00744,-4.5252 z m 55.85583,-1.0849 c -20.5764,0.5676 -36.68532,16.4439 -36.37679,34.7998 0.31068,18.4837 16.78112,33.7945 37.92611,33.2138 13.55374,-0.3723 27.6344,-7.4909 33.81963,-17.2404 0.006,0 -6.47498,-2.7012 -6.46944,-2.6989 -5.35956,8.2736 -16.90899,13.5313 -27.51827,13.8227 -16.39115,0.4503 -30.72205,-11.5271 -31.01694,-27.2172 22.71063,-0.4268 45.41701,-1.0805 68.11655,-1.9392 -0.0907,-0.9738 -0.18128,-1.9476 -0.27185,-2.9215 -2.48505,-16.9104 -18.72247,-30.3567 -38.209,-29.8191 z m 222.59772,-12.3982 c -20.60921,1.6574 -35.82966,18.42 -34.49208,36.731 1.34693,18.439 18.62826,32.7949 39.6253,31.107 13.46778,-1.0827 27.13502,-8.9037 32.81592,-18.9448 -2.19703,-0.7894 -4.39306,-1.5801 -6.58807,-2.3722 -4.92828,8.5295 -16.16904,14.3697 -26.71807,15.2177 -16.28798,1.3093 -31.24602,-9.8542 -32.41044,-25.5034 22.65445,-1.6857 45.2968,-3.5255 67.92701,-5.5063 -0.13873,-0.9682 -0.27743,-1.9363 -0.4161,-2.9044 -3.31938,-16.7661 -20.23221,-29.3937 -39.74347,-27.8246 z m 89.15838,-7.9195 c -8.53318,3.6347 -18.42736,12.9475 -20.26235,19.9735 l -0.75973,-8.1677 c -0.30746,-3.3055 -1.21466,-6.1648 -2.31707,-8.5467 -2.54291,0.2359 -5.08589,0.47 -7.62895,0.7024 1.36354,1.7708 2.42612,4.6167 2.7829,8.5061 l 5.23321,57.0497 c 2.41216,-0.2213 4.82411,-0.4441 7.23585,-0.6684 l -3.14127,-33.7711 c -1.3498,-14.5115 13.06165,-29.8575 27.25214,-31.252 -2.80024,-1.2732 -5.59849,-2.5485 -8.39473,-3.8258 z m 55.83194,-5.6732 c -20.59742,2.1874 -35.37148,19.3581 -33.54261,37.6258 1.84172,18.3961 19.49302,32.281 40.40594,30.0618 13.41703,-1.4237 26.87642,-9.579 32.3072,-19.7539 -2.21521,-0.7359 -4.42965,-1.4729 -6.6433,-2.211 -4.71442,8.647 -15.79755,14.7644 -26.3097,15.8799 -16.22727,1.722 -31.47048,-9.0401 -33.05098,-24.6522 22.60226,-2.2882 45.19233,-4.7025 67.77017,-7.23 -0.16131,-0.9647 -0.32259,-1.9293 -0.48385,-2.8939 -3.72428,-16.6823 -20.95427,-28.8973 -40.45287,-26.8265 z m 127.779136,-14.786 c -9.983421,1.2434 -20.383403,11.7664 -24.770533,22.8518 l -1.188878,-9.8251 c -0.398833,-3.2961 -1.385571,-6.1291 -2.555042,-8.4796 -2.539362,0.3068 -5.0788,0.6122 -7.618313,0.9163 1.41469,1.7318 2.557501,4.5468 3.023019,8.425 l 6.828125,56.8847 c 2.401757,-0.2883 4.803305,-0.5777 7.204644,-0.8683 l -3.973001,-32.8339 c -1.188263,-9.8201 10.467433,-29.5992 23.61473,-31.2365 13.884801,-1.729 18.94579,9.4901 20.035429,18.0871 l 5.124415,40.4308 c 2.345166,-0.2973 4.690132,-0.5956 7.034897,-0.8949 l -5.158487,-40.4261 c -1.780946,-13.957 -10.797904,-25.1241 -27.601005,-23.0313 z m -1651.974446,23.0279 c 14.9289,20.7879 29.6636,41.6619 44.1714,62.6258 8.5651,-23.9606 17.36,-47.893 26.4159,-71.7899 -2.6863,0.32 -5.3719,0.6434 -8.0569,0.9702 -7.0002,18.5832 -13.8456,37.187 -20.5508,55.8079 -11.2957,-16.2815 -22.7265,-32.5089 -34.2772,-48.6838 -2.5681,0.354 -5.1356,0.7106 -7.7024,1.0698 z m 366.8897,-27.4545 -0.2189,40.8182 c -0.077,14.2591 12.6558,26.2128 28.7312,26.5457 6.7397,0.1396 12.9137,-1.7286 17.8929,-4.9703 7.0626,-4.6009 11.7614,-11.9972 12.0665,-20.3552 l 1.4888,-40.7915 c -2.4499,-0.09 -4.9005,-0.1746 -7.3517,-0.2549 l -1.3309,40.7979 c -0.1447,4.4353 -1.8599,8.4719 -4.6036,11.7209 -4.2597,5.0427 -11.0088,8.2059 -18.3604,8.055 -11.9715,-0.2459 -21.437,-9.3674 -21.334,-20.6956 l 0.371,-40.817 c -2.4504,-0.022 -4.9007,-0.04 -7.3509,-0.053 z m 423.64429,34.451 -3.78916,40.6445 c -1.32315,14.1929 10.50053,27.2815 27.10258,28.6953 16.77527,1.4285 30.65433,-9.4794 31.73507,-23.6953 l 3.09425,-40.7012 c -2.37505,-0.1805 -4.75026,-0.364 -7.12562,-0.5502 l -3.18907,40.694 c -0.88515,11.2949 -11.97513,19.5079 -24.34461,18.4533 -12.28228,-1.0472 -21.09471,-10.9509 -20.06428,-22.2307 l 3.71357,-40.6511 c -2.3774,-0.2173 -4.75498,-0.4369 -7.13273,-0.6586 z m 84.41883,6.8212 -4.40081,65.8673 c 2.43113,0.1625 4.86284,0.322 7.29512,0.4782 l 4.22707,-65.8795 c -2.37365,-0.1521 -4.74744,-0.3075 -7.12138,-0.466 z m 66.84302,3.6459 -2.8025,65.9551 c 2.43358,0.1034 4.86723,0.2037 7.30095,0.301 l 2.6359,-65.962 c -2.3783,-0.095 -4.75642,-0.193 -7.13435,-0.2941 z m 642.53449,-31.3235 7.56318,65.5833 c 2.40371,-0.2772 4.80722,-0.5556 7.21052,-0.8352 l -7.62975,-65.5757 c -2.38125,0.2771 -4.76257,0.553 -7.14395,0.8276 z m -1463.14093,3.9337 c 14.4035,-1.4736 27.7686,6.7711 31.9333,19.6009 -19.687,1.8009 -39.3522,3.8192 -58.994,6.029 1.4082,-13.3967 12.7415,-24.1649 27.0607,-25.6299 z m 512.0066,5.0241 c 14.256,1.561 25.5821,12.3307 27.0773,25.7277 -19.6047,-2.1858 -39.2211,-4.3591 -58.8595,-6.4222 4.2537,-12.7817 17.5931,-20.8592 31.7822,-19.3055 z m 93.53435,10.327 c 16.08591,1.7199 28.61401,15.4205 27.02896,31.0924 -1.57925,15.6145 -16.70358,26.7159 -33.02575,24.9692 -1.7914,-0.1917 -3.53966,-0.5342 -5.22986,-1.0128 0,0 0,0 0,0 -13.5979,-3.8507 -23.3865,-16.4948 -21.8522,-30.3642 1.5411,-13.9299 13.8297,-23.9672 27.80347,-24.8069 0,0 0,0 0,0 1.7372,-0.1047 3.50129,-0.067 5.27538,0.1223 z m 285.41304,18.9797 c 15.9132,0.2864 29.79523,12.7607 29.67005,28.5117 -0.12471,15.6927 -14.33505,28.1547 -30.6849,27.8603 -16.59416,-0.2989 -30.10721,-13.263 -29.66419,-28.9486 0.44472,-15.7457 14.52861,-27.714 30.67904,-27.4234 z m 144.62536,-0.7987 c 14.13749,-0.39 26.82785,8.6101 30.26012,21.6433 -19.67737,0.7031 -39.35834,1.25 -59.0412,1.6264 2.63194,-13.1988 14.72502,-22.882 28.78108,-23.2697 z m 222.90602,-12.4148 c 14.14364,-1.1375 27.29431,7.211 31.3774,20.0564 -19.62664,1.6894 -39.26162,3.2713 -58.90492,4.7372 1.89941,-13.3264 13.46453,-23.6626 27.52752,-24.7936 z m 145.13922,-13.6063 c 14.12949,-1.5005 27.49439,6.5215 31.89148,19.2645 -19.58593,2.1695 -39.18027,4.2526 -58.78301,6.2409 1.54526,-13.3727 12.84261,-24.0135 26.89153,-25.5054 z"
       transform="matrix(0.26458333,0,0,0.26458333,-1064.0116,-230.31763)"
       id="text3784-0-4"
       inkscape:original-d="m -788.37891,1273.2363 v 97.1992 h 5.85938 v -97.1992 z m 54.94727,0 v 88.4766 c 0,3.9062 -0.65039,6.7695 -1.62695,8.7226 h 6.25 c 0.71614,-2.4739 1.23632,-5.4023 1.23632,-8.7226 v -8.2031 c 3.19011,8.7239 14.25912,17.9023 24.48047,17.9023 16.86198,0 29.94727,-15.5592 29.94727,-34.0488 0,-18.3594 -13.08529,-33.9844 -29.94727,-33.9844 -10.22135,0 -21.29036,8.6589 -24.48047,17.9688 v -48.1114 z m -269.53126,2.2129 -14.582,17.252 h 5.9883 l 19.66207,-17.252 z m 190.03907,8.0723 c -2.92969,0 -5.27344,2.4088 -5.27344,5.2734 0,2.9297 2.34375,5.2735 5.27344,5.2735 2.92969,0 5.20899,-2.3438 5.20899,-5.2735 0,-2.8646 -2.2793,-5.2734 -5.20899,-5.2734 z m 54.94922,0 c -2.92969,0 -5.27344,2.4088 -5.27344,5.2734 0,2.9297 2.34375,5.2735 5.27344,5.2735 2.92969,0 5.20703,-2.3438 5.20703,-5.2735 0,-2.8646 -2.27734,-5.2734 -5.20703,-5.2734 z m 526.49609,0 c -2.92968,0 -5.27343,2.4088 -5.27343,5.2734 0,2.9297 2.34375,5.2735 5.27343,5.2735 2.92969,0 5.20899,-2.3438 5.20899,-5.2735 0,-2.8646 -2.2793,-5.2734 -5.20899,-5.2734 z m -1083.65818,19.7265 c -8.3334,0 -16.3418,5.7305 -16.3418,15.8868 0,19.3359 31.6406,14.7129 31.6406,32.0957 0,8.9192 -7.7474,14.5175 -15.4297,14.5175 -7.0312,0 -13.8659,-4.4908 -15.1679,-14.9726 l -5.795,0.8457 c 1.6927,13.8021 11.2637,19.9219 20.834,19.9219 10.7422,0 21.418,-7.6823 21.418,-20.3125 0,-22.0703 -31.5098,-18.0983 -31.5098,-32.0957 0,-6.5756 4.9479,-10.1563 10.3516,-10.1563 4.6224,0 9.6347,2.8646 11.5879,8.9844 l 5.4043,-1.8887 c -2.8646,-8.7239 -10.1563,-12.8262 -16.9922,-12.8262 z m 845.44334,0 c -8.33333,0 -16.3418,5.7305 -16.3418,15.8868 0,19.3359 31.64063,14.7129 31.64063,32.0957 0,8.9192 -7.7474,14.5175 -15.42969,14.5175 -7.03125,0 -13.86784,-4.4908 -15.16992,-14.9726 l -5.79297,0.8457 c 1.69271,13.8021 11.26172,19.9219 20.83203,19.9219 10.74219,0 21.41992,-7.6823 21.41992,-20.3125 0,-22.0703 -31.50976,-18.0983 -31.50976,-32.0957 0,-6.5756 4.94791,-10.1563 10.35156,-10.1563 4.6224,0 9.63477,2.8646 11.58789,8.9844 l 5.4043,-1.8887 c -2.86459,-8.7239 -10.15625,-12.8262 -16.99219,-12.8262 z m -955.07814,0.1309 c -16.9271,0 -30.2734,15.625 -30.2734,33.9844 0,18.4896 13.0846,34.0488 30.0117,34.0488 10.8724,0 22.3965,-6.6393 27.6699,-16.1445 l -5.1426,-2.9297 c -4.5573,8.0729 -13.9987,12.9551 -22.5273,12.9551 -13.151,0 -24.543,-12.2396 -24.543,-27.9297 h 55.2735 l -0.1309,-2.9297 c -1.4974,-16.9922 -14.3223,-31.0547 -30.3379,-31.0547 z m 73.0469,0 c -7.2266,2.7995 -15.9505,11.1328 -17.9688,17.9688 v -8.2032 c 0,-3.3203 -0.5221,-6.2506 -1.2382,-8.7246 h -6.25 c 0.9765,1.888 1.6289,4.8184 1.6289,8.7246 v 57.291 h 5.8593 v -33.9179 c 0,-14.5834 12.8249,-28.5156 24.4786,-28.5156 z m 221.5488,0 c -8.2031,0 -17.6432,9.1803 -22.2656,19.6621 v -9.8965 c 0,-3.3203 -0.5202,-6.2506 -1.2363,-8.7246 h -6.25 c 0.9765,1.888 1.6269,4.8184 1.6269,8.7246 v 57.291 h 5.8594 v -33.0722 c 0,-9.8959 11.3275,-28.125 22.1348,-28.125 11.3932,0 14.3242,11.7845 14.3242,20.4433 v 40.7539 h 5.7285 v -40.7539 c 0,-14.0625 -6.1198,-26.3027 -19.9219,-26.3027 z m 116.6016,0 c -16.9271,0 -30.2735,15.625 -30.2735,33.9844 0,18.4896 13.0866,34.0488 30.0137,34.0488 10.8724,0 20.31252,-6.6393 25.58595,-16.1445 l -4.94922,-2.9297 c -4.49218,8.0729 -12.10803,12.9551 -20.63673,12.9551 -13.151,0 -24.5449,-11.9147 -24.5449,-27.67 h 55.27343 l -0.13086,-3.1894 c -1.49739,-16.9922 -14.32226,-31.0547 -30.33787,-31.0547 z m 76.36717,0 c -16.92708,0 -30.01367,15.625 -30.01367,33.9844 0,18.4896 13.08659,34.0488 30.01367,34.0488 10.15625,0 21.28841,-8.5273 24.47851,-17.9023 v 49.5429 h 5.79493 v -89.9082 c 0,-3.9062 0.58593,-6.8366 1.5625,-8.7246 h -6.25 c -0.71615,2.474 -1.10743,5.4043 -1.10743,8.7246 v 8.2032 c -3.1901,-8.7891 -14.32226,-17.9688 -24.47851,-17.9688 z m 306.70508,0 c -7.22657,2.7995 -15.95052,11.1328 -17.96875,17.9688 v -8.2032 c 0,-3.3203 -0.52019,-6.2506 -1.23633,-8.7246 h -6.25 c 0.97656,1.888 1.62695,4.8184 1.62695,8.7246 v 57.291 h 5.85938 v -33.9179 c 0,-14.5834 12.82682,-28.5156 24.48047,-28.5156 z m 45.76953,0 c -16.92709,0 -30.27344,15.625 -30.27344,33.9844 0,18.4896 13.08464,34.0488 30.01172,34.0488 10.8724,0 22.39648,-6.6393 27.66992,-16.1445 l -5.14258,-2.9297 c -4.55729,8.0729 -13.99869,12.9551 -22.52734,12.9551 -13.15104,0 -24.54297,-12.2396 -24.54297,-27.9297 h 55.27344 l -0.13086,-2.9297 c -1.4974,-16.9922 -14.32227,-31.0547 -30.33789,-31.0547 z m 182.29101,0 c -16.92708,0 -30.27343,15.625 -30.27343,33.9844 0,18.4896 13.08658,34.0488 30.01367,34.0488 10.87239,0 22.39453,-6.6393 27.66797,-16.1445 l -5.14258,-2.9297 c -4.55729,8.0729 -13.99675,12.9551 -22.52539,12.9551 -13.15104,0 -24.54492,-12.2396 -24.54492,-27.9297 h 55.27343 l -0.13086,-2.9297 c -1.49739,-16.9922 -14.32226,-31.0547 -30.33789,-31.0547 z m 73.04688,0 c -7.22656,2.7995 -15.95052,11.1328 -17.96875,17.9688 v -8.2032 c 0,-3.3203 -0.52018,-6.2506 -1.23633,-8.7246 h -6.25 c 0.97656,1.888 1.62695,4.8184 1.62695,8.7246 v 57.291 h 5.85938 v -33.9179 c 0,-14.5834 12.82487,-28.5156 24.47851,-28.5156 z m 45.76758,0 c -16.92709,0 -30.27344,15.625 -30.27344,33.9844 0,18.4896 13.08659,34.0488 30.01367,34.0488 10.8724,0 22.39649,-6.6393 27.66992,-16.1445 l -5.14453,-2.9297 c -4.55729,8.0729 -13.99674,12.9551 -22.52539,12.9551 -13.15104,0 -24.54492,-12.2396 -24.54492,-27.9297 h 55.27344 l -0.12891,-2.9297 c -1.4974,-16.9922 -14.32422,-31.0547 -30.33984,-31.0547 z m 104.81836,0 c -8.20313,0 -17.64323,9.1803 -22.26563,19.6621 v -9.8965 c 0,-3.3203 -0.52018,-6.2506 -1.23633,-8.7246 h -6.25 c 0.97657,1.888 1.62696,4.8184 1.62696,8.7246 v 57.291 h 5.85937 v -33.0722 c 0,-9.8959 11.32747,-28.125 22.13477,-28.125 11.39323,0 14.32422,11.7845 14.32422,20.4433 v 40.7539 h 5.72851 v -40.7539 c 0,-14.0625 -6.11979,-26.3027 -19.92187,-26.3027 z m -1343.55471,1.041 28.711,67.9688 28.4511,-67.9688 h -6.5117 l -22.1348,52.8008 -22.2656,-52.8008 z m 294.6621,0 v 40.8203 c 0,14.2578 10.4818,26.1719 23.8282,26.1719 13.4765,0 23.957,-11.9141 23.957,-26.1719 v -40.8203 h -5.8594 v 40.8203 c 0,11.3282 -8.3984,20.3789 -18.3594,20.3789 -9.8958,0 -17.707,-9.0507 -17.707,-20.3789 v -40.8203 z m 342.44729,0 v 40.8203 c 0,14.2578 10.48177,26.1719 23.82813,26.1719 13.47656,0 23.95898,-11.9141 23.95898,-26.1719 v -40.8203 h -5.85937 v 40.8203 c 0,11.3282 -8.39844,20.3789 -18.35938,20.3789 -9.89583,0 -17.70898,-9.0507 -17.70898,-20.3789 v -40.8203 z m 69.40039,0 v 66.0156 h 5.85938 v -66.0156 z m 54.94922,0 v 66.0156 h 5.85938 v -66.0156 z m 526.4961,0 v 66.0156 h 5.85937 v -66.0156 z m -1190.3633,4.8184 c 11.5886,0 21.6791,9.4407 24.0879,22.5918 h -47.9824 c 2.3437,-13.1511 12.3711,-22.5918 23.8945,-22.5918 z m 411.1973,0 c 11.5885,0 21.67902,9.4407 24.08787,22.5918 h -47.98047 c 2.3438,-13.1511 12.3691,-22.5918 23.8926,-22.5918 z m 76.36717,0 c 13.21614,0 24.47851,12.3698 24.47851,28.125 0,15.6901 -11.26237,28.2558 -24.47851,28.2558 -13.15104,0 -24.54492,-12.5657 -24.54492,-28.2558 0,-15.7552 11.39388,-28.125 24.54492,-28.125 z m 234.11523,0 c 13.08594,0 24.47852,12.3698 24.47852,28.125 0,15.6901 -11.39258,28.2558 -24.47852,28.2558 -13.28125,0 -24.48047,-12.5657 -24.48047,-28.2558 0,-15.7552 11.19922,-28.125 24.48047,-28.125 z m 118.35938,0 c 11.58854,0 21.67903,9.4407 24.08789,22.5918 h -47.98242 c 2.34375,-13.1511 12.37109,-22.5918 23.89453,-22.5918 z m 182.29101,0 c 11.58855,0 21.67904,9.4407 24.08789,22.5918 h -47.98046 c 2.34375,-13.1511 12.36914,-22.5918 23.89257,-22.5918 z m 118.81446,0 c 11.58854,0 21.68099,9.4407 24.08984,22.5918 h -47.98242 c 2.34375,-13.1511 12.36914,-22.5918 23.89258,-22.5918 z"
       inkscape:connector-curvature="0"
       inkscape:path-effect="#path-effect3806-9" />
  </g>
</svg>
